<?xml version="1.0" standalone="no"?>
<!DOCTYPE svg PUBLIC "-//W3C//DTD SVG 20010904//EN"
 "http://www.w3.org/TR/2001/REC-SVG-20010904/DTD/svg10.dtd">
<svg version="1.0" xmlns="http://www.w3.org/2000/svg"
 width="558.000000pt" height="447.000000pt" viewBox="0 0 558.000000 447.000000"
 preserveAspectRatio="xMidYMid meet">

<g transform="translate(0.000000,447.000000) scale(0.100000,-0.100000)"
fill="#000000" stroke="none">
<path d="M2542 3163 c16 -37 28 -51 28 -32 0 9 -3 19 -7 23 -5 4 -8 13 -8 19
0 5 -6 12 -13 15 -10 3 -10 -2 0 -25z"/>
<path d="M2898 3125 c-3 -4 -12 -8 -20 -9 -47 -10 -82 -36 -83 -61 0 -5 -22
-13 -50 -16 -27 -3 -62 -11 -76 -17 -32 -13 -69 -73 -69 -111 0 -32 41 -97 58
-94 7 2 12 -2 12 -7 0 -5 13 -10 29 -10 23 0 32 -7 45 -34 9 -19 16 -47 17
-63 l1 -28 10 28 c8 24 6 34 -16 65 -14 21 -41 43 -59 50 -43 16 -71 62 -61
105 9 41 32 77 51 77 8 0 12 4 9 8 -3 5 15 7 40 5 32 -3 46 1 50 11 3 8 22 26
43 39 51 34 134 33 180 -1 17 -13 36 -20 41 -17 5 3 12 0 16 -6 5 -8 3 -9 -6
-4 -10 6 -12 4 -6 -11 4 -10 10 -31 13 -45 4 -20 13 -28 35 -33 25 -5 54 -28
94 -77 6 -8 8 -31 4 -56 -4 -27 -3 -44 4 -47 7 -3 6 -5 -2 -5 -7 -1 -26 -14
-44 -31 -27 -26 -39 -30 -85 -30 -30 0 -62 4 -72 9 -13 7 -27 4 -50 -10 -18
-11 -31 -23 -27 -26 3 -3 14 2 25 11 18 16 21 16 51 1 23 -12 49 -15 91 -12
85 6 120 42 145 148 6 29 -41 119 -63 119 -7 0 -13 4 -13 9 0 5 -11 13 -25 18
-14 5 -38 30 -57 63 -24 39 -45 60 -72 73 -45 21 -98 32 -108 22z"/>
<path d="M2420 3082 c0 -9 70 -45 77 -39 2 2 -10 10 -27 17 -16 7 -30 16 -30
21 0 5 -4 9 -10 9 -5 0 -10 -4 -10 -8z"/>
<path d="M2390 2930 c0 -5 15 -10 34 -10 19 0 38 5 41 10 4 6 -10 10 -34 10
-23 0 -41 -4 -41 -10z"/>
<path d="M1102 2733 c10 -2 20 -18 23 -36 9 -48 1 -549 -9 -569 -7 -16 -2 -18
47 -18 l56 0 -15 28 c-17 32 -19 193 -4 223 6 10 18 19 28 20 11 0 7 4 -10 10
l-26 10 1 160 c2 130 5 162 17 169 10 7 -7 9 -55 9 -38 -1 -62 -3 -53 -6z"/>
<path d="M1248 2733 c12 -2 30 -2 40 0 9 3 -1 5 -23 4 -22 0 -30 -2 -17 -4z"/>
<path d="M1337 2734 c-3 -4 13 -16 36 -28 52 -27 76 -73 77 -143 0 -64 -13
-99 -52 -140 -24 -25 -27 -31 -12 -28 11 2 24 4 31 4 16 1 68 51 83 81 36 69
29 148 -18 189 -15 13 -20 20 -12 16 8 -4 4 2 -10 13 -13 11 -28 19 -31 16 -4
-2 -9 0 -11 5 -4 11 -73 23 -81 15z"/>
<path d="M2618 2723 c-41 -49 9 -121 66 -95 22 10 26 18 26 51 0 22 -5 43 -12
47 -7 5 -9 2 -4 -7 4 -8 1 -6 -7 4 -8 9 -23 17 -34 17 -11 0 -27 -8 -35 -17z"/>
<path d="M3387 2733 c12 -2 24 -14 27 -29 12 -48 5 -582 -7 -588 -7 -2 -3 -5
8 -5 22 -1 111 -33 155 -56 21 -11 30 -11 40 -2 10 9 11 9 6 0 -14 -25 139
-103 264 -134 57 -15 93 -19 118 -13 21 4 41 7 45 5 16 -3 82 41 107 72 18 24
19 28 4 15 -11 -10 -26 -18 -33 -18 -7 0 -10 -3 -8 -7 5 -9 -16 -11 -108 -13
-66 -2 -160 18 -245 51 -30 12 -84 33 -120 46 -36 14 -85 31 -110 37 l-45 12
-3 297 c-2 286 -2 297 18 317 l20 20 -77 -1 c-43 -1 -68 -4 -56 -6z"/>
<path d="M1780 2540 c8 -5 23 -10 32 -10 9 0 34 -17 55 -38 60 -60 88 -174 63
-261 -7 -25 -6 -37 5 -48 13 -12 17 -10 34 18 26 43 35 98 26 167 -7 57 -40
127 -55 117 -4 -3 -10 2 -13 10 -3 7 -20 21 -38 30 -17 9 -28 12 -25 6 4 -5
-6 -4 -21 4 -32 17 -88 21 -63 5z"/>
<path d="M2301 2541 c-8 -5 -19 -7 -26 -5 -6 3 -23 -5 -36 -16 -21 -19 -21
-21 -4 -15 57 19 84 17 134 -10 28 -16 49 -30 46 -33 -2 -2 5 -23 17 -45 17
-34 20 -54 16 -123 -2 -46 -10 -89 -17 -98 -7 -8 -10 -19 -7 -25 4 -5 -2 -12
-13 -16 -10 -3 -29 -14 -41 -25 -19 -16 -20 -20 -7 -20 10 0 26 9 37 20 11 11
20 18 20 15 0 -3 12 5 26 18 38 32 74 118 74 177 0 27 -4 52 -10 55 -5 3 -10
17 -10 30 0 27 -27 58 -42 49 -7 -4 -8 -2 -4 4 9 15 -32 55 -50 48 -9 -3 -12
-1 -9 4 3 6 0 10 -8 10 -8 0 -27 2 -43 5 -16 3 -35 1 -43 -4z"/>
<path d="M3031 2542 c-38 -12 -36 -29 3 -24 44 5 98 -21 114 -55 8 -18 12 -81
12 -190 l0 -163 49 1 c43 1 48 3 35 16 -10 11 -14 45 -15 139 -1 68 -3 129 -4
134 -1 6 -3 17 -4 26 0 8 -5 13 -10 9 -6 -3 -8 4 -6 15 6 29 -15 72 -32 66 -8
-3 -12 -2 -9 3 11 18 -91 35 -133 23z"/>
<path d="M3943 2536 c21 -8 46 -21 56 -30 10 -9 20 -14 22 -11 3 2 18 -24 34
-58 53 -115 42 -234 -29 -299 -17 -15 -25 -28 -19 -28 6 0 19 8 29 18 10 9 21
17 25 17 25 0 76 82 71 112 -2 6 2 14 8 18 12 7 14 98 3 109 -8 8 -9 13 -12
41 -1 20 -70 96 -85 94 -24 -3 -37 1 -31 11 3 6 -4 10 -18 10 -14 0 -40 2 -58
5 l-34 6 38 -15z"/>
<path d="M1693 2528 c-13 -6 -23 -15 -23 -20 0 -5 -4 -7 -9 -4 -4 3 -19 -6
-31 -19 -13 -14 -20 -25 -17 -25 4 0 -2 -9 -13 -20 -22 -22 -27 -45 -7 -35 6
4 4 0 -5 -8 -27 -21 -25 -139 2 -177 11 -15 17 -30 14 -33 -9 -9 60 -59 102
-73 21 -8 57 -13 79 -12 39 1 39 1 6 5 -19 3 -49 15 -66 29 -18 13 -36 24 -41
24 -20 0 -56 130 -54 193 1 34 2 70 1 80 0 9 5 15 10 11 5 -3 9 -2 8 3 -4 18
15 45 50 68 37 26 33 32 -6 13z"/>
<path d="M2125 2530 c-3 -5 -16 -10 -28 -10 l-22 -1 22 -18 c21 -18 22 -24 23
-279 0 -219 -2 -267 -15 -292 l-16 -30 57 0 c47 0 55 2 45 14 -15 18 -19 41
-21 118 -3 104 -2 108 20 108 11 0 20 -4 20 -8 0 -12 62 -32 100 -32 44 0 35
7 -17 13 -43 4 -67 18 -91 50 -7 9 -16 15 -20 13 -12 -7 -15 250 -3 272 8 15
7 23 -3 31 -7 6 -11 22 -8 36 3 20 0 25 -16 25 -12 0 -24 -4 -27 -10z"/>
<path d="M2641 2526 c-14 -8 -32 -11 -40 -8 -9 3 -6 -3 6 -14 22 -18 23 -26
24 -186 0 -105 -3 -174 -11 -187 -10 -20 -8 -21 30 -21 25 0 40 5 41 13 0 6 0
102 0 212 -1 214 -2 218 -50 191z"/>
<path d="M2885 2529 c4 -6 1 -10 -6 -8 -8 1 -24 1 -37 0 l-23 -1 21 -22 c11
-12 20 -24 21 -27 0 -3 1 -77 1 -164 1 -135 -1 -160 -16 -176 -17 -18 -15 -19
45 -20 58 -1 61 0 46 17 -13 15 -17 46 -18 170 -1 162 3 175 48 193 13 5 23
13 23 19 0 16 -15 12 -35 -10 -25 -28 -35 -25 -35 10 0 24 -4 30 -21 30 -12 0
-17 -4 -14 -11z"/>
<path d="M3833 2524 c-18 -9 -33 -23 -33 -30 0 -8 -5 -13 -11 -11 -6 1 -24
-19 -40 -46 -22 -36 -29 -60 -29 -105 -2 -58 0 -67 14 -112 10 -30 41 -61 52
-52 4 4 4 2 0 -5 -10 -17 39 -46 83 -49 34 -3 35 -2 16 12 -38 28 -86 76 -81
82 3 2 0 14 -6 26 -13 22 -28 197 -16 190 3 -2 10 9 16 24 5 15 24 42 42 60
17 18 30 32 28 32 -2 0 -18 -8 -35 -16z"/>
<path d="M4251 2526 c-14 -8 -32 -12 -40 -10 -9 3 -6 -1 7 -7 29 -16 31 -26
34 -196 l3 -143 30 -29 c35 -35 96 -46 162 -29 61 15 67 31 9 23 -56 -9 -130
15 -135 43 -1 9 -5 95 -7 190 -5 188 -6 190 -63 158z"/>
<path d="M4539 2525 c-31 -11 -32 -12 -14 -23 19 -10 20 -23 22 -179 0 -92 2
-173 2 -179 2 -20 45 -36 71 -25 14 5 20 10 14 10 -23 2 -29 52 -29 228 0 201
4 191 -66 168z"/>
<path d="M1315 2384 l-40 -13 40 6 c40 6 52 10 44 17 -2 2 -22 -3 -44 -10z"/>
<path d="M1886 2147 c-36 -33 -37 -34 -13 -30 30 6 61 36 55 54 -2 7 -19 -2
-42 -24z"/>
<path d="M2700 2120 c0 -5 5 -10 11 -10 5 0 7 5 4 10 -3 6 -8 10 -11 10 -2 0
-4 -4 -4 -10z"/>
<path d="M3938 2103 c6 -2 18 -2 25 0 6 3 1 5 -13 5 -14 0 -19 -2 -12 -5z"/>
<path d="M3602 1740 c0 -14 2 -19 5 -12 2 6 2 18 0 25 -3 6 -5 1 -5 -13z"/>
<path d="M2262 1700 c0 -14 2 -19 5 -12 2 6 2 18 0 25 -3 6 -5 1 -5 -13z"/>
<path d="M2871 1704 c0 -11 3 -14 6 -6 3 7 2 16 -1 19 -3 4 -6 -2 -5 -13z"/>
<path d="M2540 1700 c0 -5 5 -10 10 -10 6 0 10 5 10 10 0 6 -4 10 -10 10 -5 0
-10 -4 -10 -10z"/>
<path d="M3145 1700 c-3 -5 -1 -10 4 -10 6 0 11 5 11 10 0 6 -2 10 -4 10 -3 0
-8 -4 -11 -10z"/>
</g>
</svg>
